<?xml version="1.0" encoding="UTF-8" standalone="no"?>
<!-- Created with Inkscape (http://www.inkscape.org/) -->

<svg
   xmlns:osb="http://www.openswatchbook.org/uri/2009/osb"
   xmlns:dc="http://purl.org/dc/elements/1.1/"
   xmlns:cc="http://creativecommons.org/ns#"
   xmlns:rdf="http://www.w3.org/1999/02/22-rdf-syntax-ns#"
   xmlns:svg="http://www.w3.org/2000/svg"
   xmlns="http://www.w3.org/2000/svg"
   xmlns:sodipodi="http://sodipodi.sourceforge.net/DTD/sodipodi-0.dtd"
   xmlns:inkscape="http://www.inkscape.org/namespaces/inkscape"
   width="100"
   height="100"
   id="svg2"
   version="1.1"
   inkscape:version="0.48.0 r9654"
   sodipodi:docname="Predator2.svg"
   inkscape:export-filename="C:\Users\Gabriella\workspace\DarWin\sprites\PredatorOpen.png"
   inkscape:export-xdpi="200"
   inkscape:export-ydpi="200">
  <defs
     id="defs4">
    <linearGradient
       id="linearGradient3788"
       osb:paint="solid">
      <stop
         style="stop-color:#000000;stop-opacity:1;"
         offset="0"
         id="stop3790" />
    </linearGradient>
  </defs>
  <sodipodi:namedview
     id="base"
     pagecolor="#ffffff"
     bordercolor="#666666"
     borderopacity="1.0"
     inkscape:pageopacity="0.0"
     inkscape:pageshadow="2"
     inkscape:zoom="1.979899"
     inkscape:cx="15.759702"
     inkscape:cy="55.711719"
     inkscape:document-units="px"
     inkscape:current-layer="layer1"
     showgrid="false"
     fit-margin-top="0"
     fit-margin-left="0"
     fit-margin-right="0"
     fit-margin-bottom="0"
     inkscape:window-width="1280"
     inkscape:window-height="750"
     inkscape:window-x="-8"
     inkscape:window-y="-8"
     inkscape:window-maximized="1" />
  <metadata
     id="metadata7">
    <rdf:RDF>
      <cc:Work
         rdf:about="">
        <dc:format>image/svg+xml</dc:format>
        <dc:type
           rdf:resource="http://purl.org/dc/dcmitype/StillImage" />
        <dc:title></dc:title>
      </cc:Work>
    </rdf:RDF>
  </metadata>
  <g
     inkscape:label="Layer 1"
     inkscape:groupmode="layer"
     id="layer1"
     transform="translate(0,-952.36218)">
    <path
       style="fill:#ffffff;stroke:#000000;stroke-width:3;stroke-linecap:round;stroke-miterlimit:4;stroke-opacity:1;stroke-dasharray:none"
       d="M 50 -0.25 C 22.244881 -0.25 -0.25 22.244881 -0.25 50 C -0.25 77.755119 22.244881 100.25 50 100.25 C 77.755119 100.25 100.25 77.755119 100.25 50 C 100.25 22.244881 77.755119 -0.25 50 -0.25 z M 50 1.5 C 68.968322 1.5 84.34375 11.35167 84.34375 16.09375 C 84.34375 20.83583 68.968322 18.6875 50 18.6875 C 31.031676 18.6875 15.65625 20.83583 15.65625 16.09375 C 15.65625 11.35167 31.031677 1.5 50 1.5 z "
       transform="translate(0,952.36218)"
       id="path2995" />
    <path
       style="fill:#000000;fill-opacity:1;stroke:none"
       d="m -3.4876091,930.67841 c -0.935792,8.23128 -7.2714919,0.0367 -15.5027419,-0.89908 -8.231247,-0.93579 -15.241038,5.74154 -14.305246,-2.48972 0.93579,-8.23124 8.367145,-14.14538 16.598395,-13.20959 8.2312479,0.93579 14.1453839,8.36715 13.2095929,16.59839 z"
       id="path3767"
       inkscape:connector-curvature="0"
       sodipodi:nodetypes="sssss" />
    <path
       style="fill:#000000;fill-opacity:1;stroke:none"
       d="m 104.90357,930.11881 c 0,8.2842 -7.220797,0.8578 -15.505067,0.8578 -8.28427,0 -14.49492,7.4264 -14.49492,-0.8578 0,-8.2843 6.71572,-15.00002 14.99999,-15.00002 8.28428,0 14.999997,6.71572 14.999997,15.00002 z"
       id="path3767-1"
       inkscape:connector-curvature="0"
       sodipodi:nodetypes="sssss" />
    <path
       style="fill:#000000;fill-opacity:1;stroke:none"
       d="m 75,1000.3104 c 0,13.807 -12.03467,1.4297 -25.84179,1.4297 -13.80712,0 -24.15821,12.3773 -24.15821,-1.4297 0,-13.80719 11.19287,-25.00009 25,-25.00009 13.80713,0 25,11.1929 25,25.00009 z"
       id="path3767-1-4"
       inkscape:connector-curvature="0"
       sodipodi:nodetypes="sssss" />
    <path
       style="fill:#000000;fill-opacity:1;stroke:none"
       d="m 137.20139,936.94362 c 0.93579,8.23131 7.27148,0.0367 15.50274,-0.89906 8.23125,-0.9358 15.24104,5.74155 14.30524,-2.48972 -0.93579,-8.23124 -8.36714,-14.14539 -16.59839,-13.20959 -8.23125,0.93579 -14.14538,8.36714 -13.20959,16.59837 z"
       id="path3767-2"
       inkscape:connector-curvature="0"
       sodipodi:nodetypes="sssss" />
    <path
       style="fill:#800000;fill-opacity:1;stroke:none"
       d="m 73.081215,895.26853 c 0,8.2842 -7.2208,0.8578 -15.50507,0.8578 -8.28427,0 -14.49492,7.4264 -14.49492,-0.8578 0,-8.2843 6.71572,-15.00002 14.99999,-15.00002 8.28428,0 15,6.71572 15,15.00002 z"
       id="path3767-1-6"
       inkscape:connector-curvature="0"
       sodipodi:nodetypes="sssss" />
    <path
       style="fill:none;stroke:#000000;stroke-width:3;stroke-linecap:round;stroke-linejoin:miter;stroke-miterlimit:4;stroke-opacity:1;stroke-dasharray:none"
       d="m 58.08122,885.38077 0,8.89254"
       id="path4001"
       inkscape:connector-curvature="0" />
    <path
       sodipodi:type="arc"
       style="fill:#ffffff;fill-opacity:1;stroke:none"
       id="path4003"
       sodipodi:cx="-54.043159"
       sodipodi:cy="31.814703"
       sodipodi:rx="5.5558391"
       sodipodi:ry="5.5558391"
       d="m -48.48732,31.814703 a 5.5558391,5.5558391 0 1 1 -11.111679,0 5.5558391,5.5558391 0 1 1 11.111679,0 z"
       transform="translate(104.04316,952.38249)" />
  </g>
</svg>
