<?xml version="1.0" encoding="UTF-8" standalone="no"?>
<!-- Created with Inkscape (http://www.inkscape.org/) -->

<svg
   xmlns:osb="http://www.openswatchbook.org/uri/2009/osb"
   xmlns:dc="http://purl.org/dc/elements/1.1/"
   xmlns:cc="http://creativecommons.org/ns#"
   xmlns:rdf="http://www.w3.org/1999/02/22-rdf-syntax-ns#"
   xmlns:svg="http://www.w3.org/2000/svg"
   xmlns="http://www.w3.org/2000/svg"
   xmlns:sodipodi="http://sodipodi.sourceforge.net/DTD/sodipodi-0.dtd"
   xmlns:inkscape="http://www.inkscape.org/namespaces/inkscape"
   width="100"
   height="100"
   id="svg2"
   version="1.1"
   inkscape:version="0.48.0 r9654"
   sodipodi:docname="PredatorTop.svg"
   inkscape:export-filename="C:\Users\Gabriella\workspace\DarWin\sprites\PredatorTop.png"
   inkscape:export-xdpi="200"
   inkscape:export-ydpi="200">
  <defs
     id="defs4">
    <linearGradient
       id="linearGradient3788"
       osb:paint="solid">
      <stop
         style="stop-color:#000000;stop-opacity:1;"
         offset="0"
         id="stop3790" />
    </linearGradient>
  </defs>
  <sodipodi:namedview
     id="base"
     pagecolor="#ffffff"
     bordercolor="#666666"
     borderopacity="1.0"
     inkscape:pageopacity="0.0"
     inkscape:pageshadow="2"
     inkscape:zoom="2.8"
     inkscape:cx="39.6177"
     inkscape:cy="64.954231"
     inkscape:document-units="px"
     inkscape:current-layer="layer1"
     showgrid="false"
     fit-margin-top="0"
     fit-margin-left="0"
     fit-margin-right="0"
     fit-margin-bottom="0"
     inkscape:window-width="1280"
     inkscape:window-height="750"
     inkscape:window-x="-8"
     inkscape:window-y="-8"
     inkscape:window-maximized="1" />
  <metadata
     id="metadata7">
    <rdf:RDF>
      <cc:Work
         rdf:about="">
        <dc:format>image/svg+xml</dc:format>
        <dc:type
           rdf:resource="http://purl.org/dc/dcmitype/StillImage" />
        <dc:title />
      </cc:Work>
    </rdf:RDF>
  </metadata>
  <g
     inkscape:label="Layer 1"
     inkscape:groupmode="layer"
     id="layer1"
     transform="translate(0,-952.36218)">
    <path
       style="fill:#000000;fill-opacity:1;stroke:none"
       d="m -3.4876091,930.67841 c -0.935792,8.23128 -7.2714919,0.0367 -15.5027419,-0.89908 -8.231247,-0.93579 -15.241038,5.74154 -14.305246,-2.48972 0.93579,-8.23124 8.367145,-14.14538 16.598395,-13.20959 8.2312479,0.93579 14.1453839,8.36715 13.2095929,16.59839 z"
       id="path3767"
       inkscape:connector-curvature="0"
       sodipodi:nodetypes="sssss" />
    <path
       style="fill:#000000;fill-opacity:1;stroke:none"
       d="m 104.90357,930.11881 c 0,8.2842 -7.220797,0.8578 -15.505067,0.8578 -8.28427,0 -14.49492,7.4264 -14.49492,-0.8578 0,-8.2843 6.71572,-15.00002 14.99999,-15.00002 8.28428,0 14.999997,6.71572 14.999997,15.00002 z"
       id="path3767-1"
       inkscape:connector-curvature="0"
       sodipodi:nodetypes="sssss" />
    <path
       style="fill:#000000;fill-opacity:1;stroke:none"
       d="m 137.20139,936.94362 c 0.93579,8.23131 7.27148,0.0367 15.50274,-0.89906 8.23125,-0.9358 15.24104,5.74155 14.30524,-2.48972 -0.93579,-8.23124 -8.36714,-14.14539 -16.59839,-13.20959 -8.23125,0.93579 -14.14538,8.36714 -13.20959,16.59837 z"
       id="path3767-2"
       inkscape:connector-curvature="0"
       sodipodi:nodetypes="sssss" />
    <path
       style="fill:#cccccc;stroke:#000000;stroke-width:3;stroke-linecap:round;stroke-miterlimit:4;stroke-opacity:1;stroke-dasharray:none"
       d="M 15.21875 13.75 C 5.6902305 22.894514 -0.25 35.748511 -0.25 50 C -0.25 77.755119 22.244881 100.25 50 100.25 C 77.755119 100.25 100.25 77.755119 100.25 50 C 100.25 35.748511 94.309769 22.894514 84.78125 13.75 L 83.4375 13.75 C 84.016124 14.6303 84.34375 15.424941 84.34375 16.09375 C 84.34375 20.83583 68.968322 18.6875 50 18.6875 C 31.031676 18.6875 15.65625 20.83583 15.65625 16.09375 C 15.65625 15.424941 15.983876 14.6303 16.5625 13.75 L 15.21875 13.75 z "
       transform="translate(0,952.36218)"
       id="path2995" />
    <path
       style="fill:#ffe4f3;fill-opacity:1;stroke:#000000;stroke-width:3;stroke-miterlimit:4;stroke-dasharray:none;stroke-opacity:1"
       d="m 75,1000.3104 c 0,13.807 -12.03467,1.4297 -25.84179,1.4297 -13.80712,0 -24.15821,12.3773 -24.15821,-1.4297 0,-13.80719 11.19287,-25.00009 25,-25.00009 13.80713,0 25,11.1929 25,25.00009 z"
       id="path3767-1-4"
       inkscape:connector-curvature="0"
       sodipodi:nodetypes="sssss" />
    <g
       id="g3883"
       transform="matrix(1,0,0,0.8362259,0,163.06101)">
      <path
         transform="matrix(2.0606602,0,0,2.0606602,161.36459,918.6379)"
         style="color:#000000;fill:#c60000;fill-opacity:1;fill-rule:nonzero;stroke:none;marker:none;visibility:visible;display:inline;overflow:visible;enable-background:accumulate"
         d="m -54.59375,26.643146 c -2.196011,0.260119 -4.02154,1.510173 -4.75,3.544354 -0.402568,1.221152 -0.264222,2.648189 0.40625,3.75 0.535906,0.973424 1.729915,1.343525 2.754494,1.576161 1.781669,0.306556 3.646968,0.293233 5.370506,-0.294911 1.473531,-0.464251 2.325203,-2.01606 2.25,-3.508426 -0.02199,-2.819522 -2.429638,-4.978465 -5.288615,-5.090575 -0.247152,-0.02532 -0.496983,-0.006 -0.742635,0.0234 z"
         id="path4003-3"
         inkscape:connector-curvature="0"
         sodipodi:nodetypes="cccccccc" />
      <path
         transform="translate(104.04316,952.38249)"
         style="color:#000000;fill:#000000;fill-opacity:1;fill-rule:nonzero;stroke:none;marker:none;visibility:visible;display:inline;overflow:visible;enable-background:accumulate"
         d="m -54.446429,24.765633 c -3.953229,0.354301 -6.526234,5.125244 -3.928571,8.203117 2.684954,1.597413 6.546667,1.883746 8.9375,-0.40625 2.552142,-3.523311 -0.724925,-8.472631 -5.008929,-7.796867 z"
         id="path4003"
         inkscape:connector-curvature="0"
         sodipodi:nodetypes="cccc" />
    </g>
    <path
       sodipodi:type="arc"
       style="color:#000000;fill:#c60000;fill-opacity:1;fill-rule:nonzero;stroke:none;marker:none;visibility:visible;display:inline;overflow:visible;enable-background:accumulate"
       id="path4003-3-1"
       sodipodi:cx="-54.043159"
       sodipodi:cy="31.814703"
       sodipodi:rx="5.5558391"
       sodipodi:ry="5.5558391"
       d="m -48.48732,31.814703 c 0,3.068405 -2.487434,5.555839 -5.555839,5.555839 -3.068406,0 -5.55584,-2.487434 -5.55584,-5.555839 0,-3.068405 2.487434,-5.555839 5.55584,-5.555839 3.068405,0 5.555839,2.487434 5.555839,5.555839 z"
       transform="matrix(2.0606602,0,0,2.0606602,86.364588,873.23146)" />
    <path
       sodipodi:type="arc"
       style="color:#000000;fill:#000000;fill-opacity:1;fill-rule:nonzero;stroke:none;marker:none;visibility:visible;display:inline;overflow:visible;enable-background:accumulate"
       id="path4003-2"
       sodipodi:cx="-54.043159"
       sodipodi:cy="31.814703"
       sodipodi:rx="5.5558391"
       sodipodi:ry="5.5558391"
       d="m -48.48732,31.814703 c 0,3.068405 -2.487434,5.555839 -5.555839,5.555839 -3.068406,0 -5.55584,-2.487434 -5.55584,-5.555839 0,-3.068405 2.487434,-5.555839 5.55584,-5.555839 3.068405,0 5.555839,2.487434 5.555839,5.555839 z"
       transform="translate(29.043162,906.97605)" />
  </g>
</svg>
